<svg xmlns="http://www.w3.org/2000/svg" viewBox="0 0 512 512">
  <defs>
    <linearGradient id="bg" x1="0" x2="1" y1="0" y2="1">
      <stop offset="0%" stop-color="#14232b" />
      <stop offset="55%" stop-color="#101920" />
      <stop offset="100%" stop-color="#0c1217" />
    </linearGradient>
    <radialGradient id="ambientA" cx="28%" cy="20%" r="62%">
      <stop offset="0%" stop-color="#59d8e1" stop-opacity=".22" />
      <stop offset="50%" stop-color="#59d8e1" stop-opacity=".06" />
      <stop offset="100%" stop-color="#59d8e1" stop-opacity="0" />
    </radialGradient>
    <radialGradient id="ambientB" cx="78%" cy="82%" r="54%">
      <stop offset="0%" stop-color="#d9edf1" stop-opacity=".08" />
      <stop offset="100%" stop-color="#d9edf1" stop-opacity="0" />
    </radialGradient>
    <linearGradient id="capsuleLeft" x1="0" x2="0" y1="0" y2="1">
      <stop offset="0%" stop-color="#7be8ef" />
      <stop offset="100%" stop-color="#55c9d1" />
    </linearGradient>
    <linearGradient id="capsuleRight" x1="0" x2="0" y1="0" y2="1">
      <stop offset="0%" stop-color="#f6fdff" />
      <stop offset="100%" stop-color="#dcecf1" />
    </linearGradient>
    <linearGradient id="capsuleSheen" x1="0" x2="1" y1="0" y2="1">
      <stop offset="0%" stop-color="#ffffff" stop-opacity=".36" />
      <stop offset="42%" stop-color="#ffffff" stop-opacity=".1" />
      <stop offset="100%" stop-color="#ffffff" stop-opacity="0" />
    </linearGradient>
    <clipPath id="capsuleClip">
      <rect x="148" y="204" width="216" height="104" rx="52" />
    </clipPath>
  </defs>
  <rect width="512" height="512" rx="132" fill="url(#bg)" />
  <rect x="14" y="14" width="484" height="484" rx="118" fill="none" stroke="#eefbfd" stroke-opacity=".06" />
  <circle cx="164" cy="144" r="188" fill="url(#ambientA)" />
  <circle cx="356" cy="360" r="168" fill="url(#ambientB)" />
  <ellipse cx="256" cy="330" rx="106" ry="22" fill="#081117" fill-opacity=".22" />
  <g clip-path="url(#capsuleClip)">
    <rect x="148" y="204" width="108" height="104" fill="url(#capsuleLeft)" />
    <rect x="256" y="204" width="108" height="104" fill="url(#capsuleRight)" />
    <rect x="148" y="204" width="216" height="104" fill="url(#capsuleSheen)" />
  </g>
  <rect x="148" y="204" width="216" height="104" rx="52" fill="none" stroke="#f6fdff" stroke-opacity=".22" stroke-width="2" />
  <path d="M256 220v72" stroke="#0c1d24" stroke-opacity=".18" stroke-width="2.5" stroke-linecap="round" />
</svg>
